<svg width="48" height="48" viewBox="0 0 48 48" fill="none" xmlns="http://www.w3.org/2000/svg">
<g clip-path="url(#clip0_0_12)">
<path d="M33.2227 28.4238C37.7142 35.0065 34.2856 41.1437 29.0056 46.2865L22.1484 34.9037" fill="white"/>
<path d="M19.5772 14.779C12.9944 10.2876 6.85721 13.7162 1.71436 18.9962L13.0972 25.8533" fill="white"/>
<path d="M19.5772 14.779C12.9944 10.2876 6.85721 13.7162 1.71436 18.9962L13.0972 25.8533" stroke="#08122A" stroke-width="3" stroke-linecap="round" stroke-linejoin="round"/>
<path d="M33.2227 28.4238C37.7142 35.0065 34.2856 41.1437 29.0056 46.2865L22.1484 34.9037" stroke="#08122A" stroke-width="3" stroke-linecap="round" stroke-linejoin="round"/>
<path d="M44.9142 3.08688C44.9142 3.08688 49.6456 14.264 41.4856 22.424C39.1803 24.8131 35.197 27.3175 30.7883 29.8981L18.0991 17.2089C20.6779 12.8056 23.1914 8.81745 25.5771 6.51544C33.7371 -1.64455 44.9142 3.08688 44.9142 3.08688Z" fill="#000B26" fill-opacity="0.1"/>
<path fill-rule="evenodd" clip-rule="evenodd" d="M22.1834 34.9042L13.0977 25.8184C14.0966 24.1456 15.0918 22.416 16.08 20.6986C19.3654 14.989 22.5729 9.4149 25.5777 6.51553C23.192 8.81754 20.6785 12.8057 18.0997 17.209L30.7888 29.8982C29.6983 30.5365 28.5818 31.1794 27.4582 31.8265C25.6928 32.8431 23.91 33.8697 22.1834 34.9042Z" fill="white"/>
<path d="M13.0972 25.8183L22.1829 34.9041C29.4515 30.5497 37.7143 26.3326 41.4857 22.424C49.6457 14.264 44.9143 3.08688 44.9143 3.08688C44.9143 3.08688 33.7372 -1.64455 25.5772 6.51544C21.6686 10.2869 17.4172 18.584 13.0972 25.8183Z" stroke="#08122A" stroke-width="3" stroke-linecap="round" stroke-linejoin="round"/>
<path d="M18.103 17.2109L30.7887 29.8967" stroke="#08122A" stroke-width="3" stroke-linecap="round" stroke-linejoin="round"/>
<path d="M35.9999 13.7157C36.9466 13.7157 37.7142 12.9482 37.7142 12.0014C37.7142 11.0546 36.9466 10.2871 35.9999 10.2871C35.0533 10.2871 34.2856 11.0546 34.2856 12.0014C34.2856 12.9482 35.0533 13.7157 35.9999 13.7157Z" stroke="#08122A" stroke-width="3" stroke-linecap="round" stroke-linejoin="round"/>
<path d="M12.6172 42.6533C10.6286 44.5733 1.71436 46.2876 1.71436 46.2876C1.71436 46.2876 3.42864 37.3733 5.34864 35.3848C5.81945 34.8797 6.38722 34.4745 7.01808 34.1933C7.64894 33.9122 8.32996 33.7611 9.02047 33.7488C9.71102 33.7367 10.3969 33.8637 11.0373 34.1224C11.6777 34.3809 12.2594 34.7659 12.7478 35.2545C13.2361 35.7427 13.6211 36.3245 13.8798 36.965C14.1384 37.6051 14.2655 38.2912 14.2533 38.9817C14.2411 39.6722 14.09 40.3531 13.8088 40.984C13.5278 41.6148 13.1225 42.1826 12.6172 42.6533Z" fill="#000B26" fill-opacity="0.1"/>
<path d="M12.6172 42.6533C10.6286 44.5733 1.71436 46.2876 1.71436 46.2876C1.71436 46.2876 3.42864 37.3733 5.34864 35.3848C5.81945 34.8797 6.38722 34.4745 7.01808 34.1933C7.64894 33.9122 8.32995 33.7611 9.02047 33.7488C9.71102 33.7367 10.3969 33.8637 11.0373 34.1224C11.6777 34.3809 12.2594 34.7659 12.7478 35.2545C13.2361 35.7427 13.6211 36.3245 13.8798 36.965C14.1384 37.6051 14.2655 38.2912 14.2533 38.9817C14.2411 39.6722 14.09 40.3531 13.8088 40.984C13.5278 41.6148 13.1225 42.1826 12.6172 42.6533Z" stroke="#08122A" stroke-width="3" stroke-linecap="round" stroke-linejoin="round"/>
</g>
<defs>
<clipPath id="clip0_0_12">
<rect width="48" height="48" fill="white"/>
</clipPath>
</defs>
</svg>
