<svg width="48" height="48" viewBox="0 0 48 48" fill="none" xmlns="http://www.w3.org/2000/svg">
<g clip-path="url(#clip0_0_65)">
<path d="M10.0929 44.6969L1.71436 37.7149V25.7148H10.874C12.6927 25.7148 14.4368 26.4373 15.7228 27.7232L19.7144 31.7148C21.1345 33.135 21.1345 35.4377 19.7144 36.8578C19.318 37.2541 18.853 37.5397 18.3576 37.7149H33.7143C36.8702 37.7149 39.4286 40.2733 39.4286 43.429C39.4286 45.0071 38.1494 46.2863 36.5716 46.2863H14.4827C12.8786 46.2863 11.3252 45.7237 10.0929 44.6969Z" fill="#000B26" fill-opacity="0.1"/>
<path d="M32.5712 29.1434C40.1453 29.1434 46.2855 23.0033 46.2855 15.4291C46.2855 7.85494 40.1453 1.71484 32.5712 1.71484C24.997 1.71484 18.8569 7.85494 18.8569 15.4291C18.8569 23.0033 24.997 29.1434 32.5712 29.1434Z" fill="white"/>
<path d="M32.5712 29.1434C40.1453 29.1434 46.2855 23.0033 46.2855 15.4291C46.2855 7.85494 40.1453 1.71484 32.5712 1.71484C24.997 1.71484 18.8569 7.85494 18.8569 15.4291C18.8569 23.0033 24.997 29.1434 32.5712 29.1434Z" stroke="#08122A" stroke-width="3" stroke-linecap="round" stroke-linejoin="round"/>
<path d="M32.5715 18.8581V12.001" stroke="#08122A" stroke-width="3" stroke-linecap="round" stroke-linejoin="round"/>
<path d="M1.71436 37.7148L10.0929 44.6968C11.3252 45.7236 12.8786 46.2863 14.4827 46.2863H36.5716C38.1494 46.2863 39.4286 45.0071 39.4286 43.4289C39.4286 40.2732 36.8702 37.7148 33.7143 37.7148H18.3576" stroke="#08122A" stroke-width="3" stroke-linecap="round" stroke-linejoin="round"/>
<path d="M12.0001 34.2863L14.5715 36.8578C15.9916 38.2779 18.2942 38.2779 19.7144 36.8578C21.1345 35.4377 21.1345 33.135 19.7144 31.7148L15.7228 27.7232C14.4368 26.4373 12.6927 25.7148 10.874 25.7148H1.71436" stroke="#08122A" stroke-width="3" stroke-linecap="round" stroke-linejoin="round"/>
</g>
<defs>
<clipPath id="clip0_0_65">
<rect width="48" height="48" fill="white"/>
</clipPath>
</defs>
</svg>
