<svg width="48" height="48" viewBox="0 0 48 48" fill="none" xmlns="http://www.w3.org/2000/svg">
<path d="M44.1602 23.1602H32.4002C31.4724 23.1602 30.7202 23.9124 30.7202 24.8402V31.5602C30.7202 32.4879 31.4724 33.2402 32.4002 33.2402H44.1602C45.088 33.2402 45.8402 32.4879 45.8402 31.5602V24.8402C45.8402 23.9124 45.088 23.1602 44.1602 23.1602Z" fill="white"/>
<path fill-rule="evenodd" clip-rule="evenodd" d="M2.16016 14.7597V39.9597C2.16016 40.8508 2.51433 41.7055 3.14416 42.3357C3.77433 42.9655 4.62907 43.3197 5.52016 43.3197H37.4402C38.3312 43.3197 39.186 42.9655 39.8162 42.3357C40.4463 41.7059 40.8002 40.8508 40.8002 39.9597V33.2397H32.4002C31.4724 33.2397 30.7202 32.4875 30.7202 31.5597V24.8397C30.7202 23.9119 31.4724 23.1597 32.4002 23.1597H40.8002V16.4397C40.8002 15.5486 40.446 14.6939 39.8162 14.0637C39.186 13.4339 38.3312 13.0797 37.4402 13.0797H34.0802V4.67969H12.2402C6.67318 4.67969 2.16016 9.19272 2.16016 14.7597Z" fill="#000B26" fill-opacity="0.1"/>
<path d="M44.1602 23.1602H32.4002C31.4724 23.1602 30.7202 23.9124 30.7202 24.8402V31.5602C30.7202 32.4879 31.4724 33.2402 32.4002 33.2402H44.1602C45.088 33.2402 45.8402 32.4879 45.8402 31.5602V24.8402C45.8402 23.9124 45.088 23.1602 44.1602 23.1602Z" stroke="#08122A" stroke-width="3" stroke-linecap="round" stroke-linejoin="round"/>
<path d="M40.8002 33.2397V39.9597C40.8002 40.8508 40.446 41.7055 39.8162 42.3357C39.1863 42.9659 38.3312 43.3197 37.4402 43.3197H5.52016C4.62907 43.3197 3.77433 42.9655 3.14416 42.3357C2.51433 41.7055 2.16016 40.8508 2.16016 39.9597V14.7597C2.16016 9.19272 6.67318 4.67969 12.2402 4.67969H34.0802V13.0797" stroke="#08122A" stroke-width="3" stroke-linecap="round" stroke-linejoin="round"/>
<path d="M40.7997 23.162V16.442C40.7997 15.5509 40.4456 14.6962 39.8157 14.066C39.1856 13.4362 38.3308 13.082 37.4397 13.082H12.2397" stroke="#08122A" stroke-width="3" stroke-linecap="round" stroke-linejoin="round"/>
</svg>
