<svg width="100" height="100" viewBox="0 0 100 100" fill="none" xmlns="http://www.w3.org/2000/svg">
<path d="M89.2863 89.2856C89.2863 91.1799 88.5334 92.997 87.1941 94.3363C85.8548 95.6756 84.0377 96.4284 82.1434 96.4284H17.8577C15.9633 96.4284 14.1465 95.6756 12.8069 94.3363C11.4674 92.997 10.7148 91.1799 10.7148 89.2856V10.7141C10.7148 8.81972 11.4674 7.00293 12.8069 5.66338C14.1465 4.32384 15.9633 3.57129 17.8577 3.57129H64.2863L89.2863 28.5713V89.2856Z" fill="#000B26" fill-opacity="0.05"/>
<path d="M89.2863 89.2856C89.2863 91.1799 88.5334 92.997 87.1941 94.3363C85.8548 95.6756 84.0377 96.4284 82.1434 96.4284H17.8577C15.9633 96.4284 14.1465 95.6756 12.8069 94.3363C11.4674 92.997 10.7148 91.1799 10.7148 89.2856V10.7141C10.7148 8.81972 11.4674 7.00293 12.8069 5.66338C14.1465 4.32384 15.9633 3.57129 17.8577 3.57129H64.2863L89.2863 28.5713V89.2856Z" stroke="#000B26" stroke-width="3" stroke-linecap="round" stroke-linejoin="round"/>
<path d="M29.2695 26.0763C29.2695 30.6144 32.9483 34.2932 37.4864 34.2932C38.6337 34.2932 39.726 34.0581 40.7179 33.6334C43.6495 32.3782 45.7033 29.4672 45.7033 26.0763C45.7033 21.5382 42.0245 17.8594 37.4864 17.8594C32.9483 17.8594 29.2695 21.5382 29.2695 26.0763Z" fill="white"/>
<path d="M25 42.4283C26.3056 39.9449 28.1407 37.8924 30.3287 36.4682C32.5167 35.044 34.9841 34.2959 37.4936 34.2959C40.0032 34.2959 42.4706 35.044 44.6586 36.4682C46.8466 37.8924 48.6816 39.9449 49.9873 42.4283" fill="white"/>
<path d="M25 42.4283C26.3056 39.9449 28.1407 37.8924 30.3287 36.4682C32.5167 35.044 34.9841 34.2959 37.4936 34.2959C40.0032 34.2959 42.4706 35.044 44.6586 36.4682C46.8466 37.8924 48.6816 39.9449 49.9873 42.4283" stroke="#000B26" stroke-width="3" stroke-linecap="round" stroke-linejoin="round"/>
<path d="M29.2695 26.0763C29.2695 30.6144 32.9483 34.2932 37.4864 34.2932C38.6337 34.2932 39.726 34.0581 40.7179 33.6334C43.6495 32.3782 45.7033 29.4672 45.7033 26.0763C45.7033 21.5382 42.0245 17.8594 37.4864 17.8594C32.9483 17.8594 29.2695 21.5382 29.2695 26.0763Z" stroke="#000B26" stroke-width="3" stroke-linecap="round" stroke-linejoin="round"/>
<path d="M25 60.7136H75" stroke="#000B26" stroke-width="3" stroke-linecap="round"/>
<path d="M25 78.5708H53.5714" stroke="#000B26" stroke-width="3" stroke-linecap="round"/>
</svg>
