<svg width="100" height="100" viewBox="0 0 100 100" fill="none" xmlns="http://www.w3.org/2000/svg">
<path d="M40.619 55.6015C40.2919 53.9965 39.4119 52.5572 38.1333 51.5336C36.854 50.5108 35.2569 49.9679 33.619 50.0015H17.239C15.6012 49.9679 14.004 50.5108 12.7247 51.5336C11.4462 52.5572 10.5662 53.9965 10.239 55.6015L4.49902 85.0015H46.499L40.619 55.6015Z" fill="#000B26" fill-opacity="0.1"/>
<path d="M89.618 55.6015C89.2902 53.9965 88.4116 52.5572 87.1323 51.5336C85.8531 50.5108 84.2552 49.9679 82.618 50.0015H66.238C64.6002 49.9679 63.003 50.5108 61.7238 51.5336C60.4452 52.5572 59.5652 53.9965 59.238 55.6015L53.498 85.0015H95.498L89.618 55.6015Z" fill="#000B26" fill-opacity="0.1"/>
<path d="M70.999 49.9985L65.119 20.5985C64.7919 18.9935 63.9119 17.5543 62.6333 16.5307C61.354 15.5078 59.7569 14.965 58.119 14.9985H41.739C40.1012 14.965 38.504 15.5078 37.2247 16.5307C35.9462 17.5543 35.0662 18.9935 34.739 20.5985L28.999 49.9985" fill="#000B26" fill-opacity="0.1"/>
<path d="M40.619 55.6015C40.2919 53.9965 39.4119 52.5572 38.1333 51.5336C36.854 50.5108 35.2569 49.9679 33.619 50.0015H17.239C15.6012 49.9679 14.004 50.5108 12.7247 51.5336C11.4462 52.5572 10.5662 53.9965 10.239 55.6015L4.49902 85.0015H46.499L40.619 55.6015Z" stroke="#08122A" stroke-width="3" stroke-linecap="round" stroke-linejoin="round"/>
<path d="M89.618 55.6015C89.2902 53.9965 88.4116 52.5572 87.1323 51.5336C85.853 50.5108 84.2552 49.9679 82.618 50.0015H66.238C64.6002 49.9679 63.003 50.5108 61.7238 51.5336C60.4452 52.5572 59.5652 53.9965 59.238 55.6015L53.498 85.0015H95.498L89.618 55.6015Z" stroke="#08122A" stroke-width="3" stroke-linecap="round" stroke-linejoin="round"/>
<path d="M70.999 49.9985L65.119 20.5985C64.7919 18.9935 63.9119 17.5543 62.6333 16.5307C61.354 15.5078 59.7569 14.965 58.119 14.9985H41.739C40.1012 14.965 38.504 15.5078 37.2247 16.5307C35.9462 17.5543 35.0662 18.9935 34.739 20.5985L28.999 49.9985" stroke="#08122A" stroke-width="3" stroke-linecap="round" stroke-linejoin="round"/>
<path d="M33.7588 49.999H66.2388" stroke="#08122A" stroke-width="3" stroke-linecap="round" stroke-linejoin="round"/>
</svg>
