<svg width="26" height="26" viewBox="0 0 26 26" fill="none" xmlns="http://www.w3.org/2000/svg">
<g clip-path="url(#clip0_0_43)">
<path fill-rule="evenodd" clip-rule="evenodd" d="M9.453 8.37193H9.28585C4.67085 8.37193 0.928711 6.70979 0.928711 4.65764C0.928711 2.60736 4.67085 0.943359 9.28585 0.943359C13.9009 0.943359 17.643 2.60736 17.643 4.65764C17.643 5.32807 17.2456 5.95765 16.5473 6.49807C13.5071 6.52407 10.8644 7.27065 9.453 8.37193Z" fill="white"/>
<path d="M9.47714 8.37151H9.28585C4.67085 8.37151 0.928711 6.70937 0.928711 4.65723V15.8001C0.928711 17.8429 4.643 19.5144 9.28585 19.5144C13.9287 19.5144 17.643 17.8429 17.643 15.8001V13.9244C17.3384 13.9392 17.0283 13.9467 16.7144 13.9467C12.0994 13.9467 8.35728 12.2827 8.35728 10.2324C8.35728 9.55451 8.76585 8.92123 9.47714 8.37523V8.37151Z" fill="#000B26" fill-opacity="0.1"/>
<path d="M16.5287 2.80215C14.3586 1.46292 11.8326 0.815225 9.28585 0.94501C4.66157 0.94501 0.928711 2.61644 0.928711 4.6593C0.928711 5.75501 2.00585 6.7393 3.71443 7.44501" stroke="#08122A" stroke-width="1.85714" stroke-linecap="round" stroke-linejoin="round"/>
<path d="M3.71443 18.5878C2.00585 17.882 0.928711 16.8978 0.928711 15.802V4.65918" stroke="#08122A" stroke-width="1.85714" stroke-linecap="round" stroke-linejoin="round"/>
<path d="M3.71443 13.0162C2.00585 12.3105 0.928711 11.3262 0.928711 10.2305" stroke="#08122A" stroke-width="1.85714" stroke-linecap="round" stroke-linejoin="round"/>
<path d="M16.7146 13.9286C21.3296 13.9286 25.0717 12.2664 25.0717 10.2143C25.0717 8.16214 21.3296 6.5 16.7146 6.5C12.0996 6.5 8.35742 8.16214 8.35742 10.2143C8.35742 12.2664 12.0996 13.9286 16.7146 13.9286Z" fill="white"/>
<path d="M16.7146 13.9282C21.3296 13.9282 25.0717 12.266 25.0717 10.2139V21.3567C25.0717 23.3996 21.3574 25.071 16.7146 25.071C12.0717 25.071 8.35742 23.3996 8.35742 21.3567V10.2139C8.35742 12.266 12.0996 13.9282 16.7146 13.9282Z" fill="#000B26" fill-opacity="0.1"/>
<path d="M16.7146 13.9286C21.3296 13.9286 25.0717 12.2664 25.0717 10.2143C25.0717 8.16214 21.3296 6.5 16.7146 6.5C12.0996 6.5 8.35742 8.16214 8.35742 10.2143C8.35742 12.2664 12.0996 13.9286 16.7146 13.9286Z" stroke="#08122A" stroke-width="1.85714" stroke-linecap="round" stroke-linejoin="round"/>
<path d="M8.35742 10.2139V21.3567C8.35742 23.3996 12.0717 25.071 16.7146 25.071C21.3574 25.071 25.0717 23.3996 25.0717 21.3567V10.2139" stroke="#08122A" stroke-width="1.85714" stroke-linecap="round" stroke-linejoin="round"/>
<path d="M25.0717 15.7852C25.0717 17.828 21.3574 19.4994 16.7146 19.4994C12.0717 19.4994 8.35742 17.828 8.35742 15.7852" stroke="#08122A" stroke-width="1.85714" stroke-linecap="round" stroke-linejoin="round"/>
</g>
<defs>
<clipPath id="clip0_0_43">
<rect width="26" height="26" fill="white"/>
</clipPath>
</defs>
</svg>
