<svg width="32" height="32" viewBox="0 0 32 32" fill="none" xmlns="http://www.w3.org/2000/svg">
<g clip-path="url(#clip0_0_17)">
<path d="M1.18408 16.5033C1.18408 18.3043 1.53881 20.0877 2.22802 21.7516C2.91723 23.4155 3.92741 24.9273 5.2009 26.2008C6.47439 27.4743 7.98624 28.4845 9.65014 29.1737C11.314 29.8629 13.0974 30.2176 14.8984 30.2176C16.6994 30.2176 18.4827 29.8629 20.1466 29.1737C21.8105 28.4845 23.3223 27.4743 24.5958 26.2008C25.8693 24.9273 26.8795 23.4155 27.5687 21.7516C28.2579 20.0877 28.6127 18.3043 28.6127 16.5033C28.6127 14.7024 28.2579 12.919 27.5687 11.2551C26.8795 9.59123 25.8693 8.07937 24.5958 6.80588C23.3223 5.53239 21.8105 4.52221 20.1466 3.833C18.4827 3.14379 16.6994 2.78906 14.8984 2.78906C13.0974 2.78906 11.314 3.14379 9.65014 3.833C7.98624 4.52221 6.47439 5.53239 5.2009 6.80588C3.92741 8.07937 2.91723 9.59123 2.22802 11.2551C1.53881 12.919 1.18408 14.7024 1.18408 16.5033Z" fill="#000B26" fill-opacity="0.1"/>
<path d="M28.6121 16.5043C28.6121 24.0784 22.4721 30.2185 14.8979 30.2185C7.32368 30.2185 1.18359 24.0784 1.18359 16.5043C1.18359 8.93013 7.32368 2.79004 14.8979 2.79004" stroke="#08122A" stroke-width="2" stroke-linecap="round" stroke-linejoin="round"/>
<path d="M1.18359 16.5039H17.0078" stroke="#08122A" stroke-width="2" stroke-linecap="round" stroke-linejoin="round"/>
<path d="M14.8983 2.79004C11.7299 6.68627 9.88264 11.4891 9.62354 16.5043C9.88264 21.5195 11.7299 26.3223 14.8983 30.2185C17.3927 27.1511 19.0683 23.5216 19.7947 19.6691" stroke="#08122A" stroke-width="2" stroke-linecap="round" stroke-linejoin="round"/>
<path d="M16.9102 9.62929C16.1081 9.48975 16.1081 8.33827 16.9102 8.19871C19.8161 7.69315 22.1274 5.47976 22.7582 2.59839L22.8065 2.37752C22.98 1.58475 24.1089 1.57982 24.2893 2.37103L24.348 2.62842C25.0022 5.49619 27.314 7.69091 30.212 8.19507C31.0182 8.33532 31.0182 9.4927 30.212 9.63295C27.314 10.1371 25.0022 12.3318 24.348 15.1996L24.2893 15.457C24.1089 16.2482 22.98 16.2433 22.8065 15.4505L22.7582 15.2296C22.1274 12.3483 19.8161 10.1349 16.9102 9.62929Z" fill="white"/>
<path d="M16.9102 9.62929C16.1081 9.48975 16.1081 8.33827 16.9102 8.19871C19.8161 7.69315 22.1274 5.47976 22.7582 2.59839L22.8065 2.37752C22.98 1.58475 24.1089 1.57982 24.2893 2.37103L24.348 2.62842C25.0022 5.49619 27.314 7.69091 30.212 8.19507C31.0182 8.33532 31.0182 9.4927 30.212 9.63295C27.314 10.1371 25.0022 12.3318 24.348 15.1996L24.2893 15.457C24.1089 16.2482 22.98 16.2433 22.8065 15.4505L22.7582 15.2296C22.1274 12.3483 19.8161 10.1349 16.9102 9.62929Z" stroke="#08122A" stroke-width="2" stroke-linecap="round" stroke-linejoin="round"/>
</g>
<defs>
<clipPath id="clip0_0_17">
<rect width="32" height="32" fill="white"/>
</clipPath>
</defs>
</svg>
