<svg width="32" height="32" viewBox="0 0 32 32" fill="none" xmlns="http://www.w3.org/2000/svg">
<g clip-path="url(#clip0_184_4085)">
<path d="M1.21387 11.5022C1.21387 14.2493 2.30512 16.8838 4.24757 18.8263C6.19002 20.7687 8.82454 21.86 11.5716 21.86C14.3186 21.86 16.9531 20.7687 18.8956 18.8263C20.838 16.8838 21.9293 14.2493 21.9293 11.5022C21.9293 8.75521 20.838 6.12068 18.8956 4.17824C16.9531 2.23579 14.3186 1.14453 11.5716 1.14453C8.82454 1.14453 6.19002 2.23579 4.24757 4.17824C2.30512 6.12068 1.21387 8.75521 1.21387 11.5022Z" fill="#000B26" fill-opacity="0.1"/>
<path d="M15.9292 31.9971V18.8542C15.9292 18.0965 16.2302 17.3697 16.766 16.8339C17.3019 16.2981 18.0286 15.9971 18.7863 15.9971C19.5441 15.9971 20.2708 16.2981 20.8066 16.8339C21.3425 17.3697 21.6435 18.0965 21.6435 18.8542V25.1399H26.2149C27.4273 25.1399 28.5901 25.6216 29.4474 26.4789C30.3047 27.3362 30.7863 28.4989 30.7863 29.7114V31.9971" fill="white"/>
<path d="M15.9292 30.8542V18.8542C15.9292 18.479 16.0031 18.1075 16.1467 17.7608C16.2903 17.4142 16.5007 17.0992 16.766 16.8339C17.0313 16.5686 17.3463 16.3581 17.693 16.2146C18.0396 16.071 18.4111 15.9971 18.7863 15.9971C19.5441 15.9971 20.2708 16.2981 20.8066 16.8339C21.3425 17.3697 21.6435 18.0965 21.6435 18.8542V25.1399H26.2149C27.4273 25.1399 28.5901 25.6216 29.4474 26.4789C30.3047 27.3362 30.7863 28.4989 30.7863 29.7114V30.8542" stroke="#08122A" stroke-width="2" stroke-linecap="round" stroke-linejoin="round"/>
<path d="M11.5729 21.8626C9.46408 21.8623 7.40557 21.2182 5.67263 20.0165C3.93968 18.8147 2.6149 17.1126 1.8754 15.1377C1.13591 13.1627 1.01694 11.0091 1.5344 8.96472C2.05187 6.92034 3.18111 5.08265 4.77114 3.69735C6.36117 2.31205 8.33621 1.44516 10.4322 1.2126C12.5282 0.980026 14.6452 1.39286 16.5003 2.3959C18.3553 3.39893 19.8599 4.94437 20.813 6.82558C21.766 8.7068 22.1221 10.8341 21.8335 12.9231" stroke="#08122A" stroke-width="2" stroke-linecap="round"/>
<path d="M14.4867 8.45752C14.3296 8.01124 14.0379 7.6247 13.6519 7.35122C13.2658 7.07774 12.8044 6.9308 12.3313 6.93066H10.5598C10.0573 6.93207 9.57295 7.11882 9.19955 7.45513C8.82615 7.79145 8.58993 8.25369 8.53614 8.75333C8.48236 9.25298 8.61478 9.75491 8.90805 10.163C9.20132 10.5711 9.63483 10.8566 10.1255 10.9649L12.8181 11.5547C13.3691 11.6749 13.8561 11.9946 14.1856 12.4522C14.5151 12.9099 14.6638 13.4731 14.6032 14.0338C14.5425 14.5944 14.2767 15.1129 13.8569 15.4894C13.4371 15.8659 12.8929 16.074 12.329 16.0735H10.8044C10.3318 16.0737 9.87083 15.9274 9.48483 15.6548C9.09883 15.3822 8.80681 14.9967 8.64897 14.5512" stroke="#08122A" stroke-width="2" stroke-linecap="round" stroke-linejoin="round"/>
<path d="M11.5703 6.93025V4.64453" stroke="#08122A" stroke-width="2" stroke-linecap="round" stroke-linejoin="round"/>
<path d="M11.5703 18.359V16.0732" stroke="#08122A" stroke-width="2" stroke-linecap="round" stroke-linejoin="round"/>
</g>
<defs>
<clipPath id="clip0_184_4085">
<rect width="32" height="32" fill="white"/>
</clipPath>
</defs>
</svg>
