<svg width="80" height="80" viewBox="0 0 80 80" fill="none" xmlns="http://www.w3.org/2000/svg">
<path d="M9.69136 74.2469C13.4657 74.2469 16.5253 71.1874 16.5253 67.4131C16.5253 63.6389 13.4657 60.5789 9.69136 60.5789C5.91708 60.5789 2.85742 63.6389 2.85742 67.4131C2.85742 71.1874 5.91708 74.2469 9.69136 74.2469Z" fill="white"/>
<path d="M40.0003 7.8139L77.1431 23.907L40.0003 40L2.85742 23.907L40.0003 7.8139Z" fill="#2573C0" fill-opacity="0.1"/>
<path d="M19.7468 48.7586C19.7468 48.7586 25.879 56.8738 39.9984 56.8738C54.1178 56.8738 60.283 48.7586 60.283 48.7586L60.279 31.2488H19.71L19.7468 48.7586Z" fill="#2573C0" fill-opacity="0.1"/>
<path d="M40.0003 7.8139L77.1431 23.907L40.0003 40L2.85742 23.907L40.0003 7.8139Z" stroke="#2573C0" stroke-width="4" stroke-linecap="round" stroke-linejoin="round"/>
<path d="M19.71 31.2488L19.7468 48.7586C19.7468 48.7586 25.879 56.8738 39.9984 56.8738C54.1178 56.8738 60.283 48.7586 60.283 48.7586L60.279 31.2488" stroke="#2573C0" stroke-width="4" stroke-linecap="round" stroke-linejoin="round"/>
<path d="M9.6875 60.579V26.9183" stroke="#2573C0" stroke-width="4" stroke-linecap="round" stroke-linejoin="round"/>
<path d="M9.69136 74.2469C13.4657 74.2469 16.5253 71.1874 16.5253 67.4131C16.5253 63.6389 13.4657 60.5789 9.69136 60.5789C5.91708 60.5789 2.85742 63.6389 2.85742 67.4131C2.85742 71.1874 5.91708 74.2469 9.69136 74.2469Z" stroke="#2573C0" stroke-width="4" stroke-linecap="round" stroke-linejoin="round"/>
</svg>
