<svg width="80" height="80" viewBox="0 0 80 80" fill="none" xmlns="http://www.w3.org/2000/svg">
<path d="M29.389 12.2485L24.3791 13.3977C24.581 14.276 24.6062 15.1857 24.4534 16.0739C24.3005 16.9621 23.9726 17.811 23.4887 18.5713C23.0049 19.3317 22.3747 19.9882 21.6349 20.5029C20.8951 21.0175 20.0603 21.38 19.1791 21.5691C17.3923 21.945 15.5294 21.6048 13.9907 20.6218C12.4521 19.6388 11.3604 18.0913 10.9506 16.312L6.49342 17.2262C5.88216 17.3596 5.30432 17.6155 4.79476 17.9785C4.28519 18.3415 3.8545 18.804 3.52871 19.3381C3.20291 19.8721 2.98876 20.4668 2.89922 21.086C2.80967 21.7051 2.84658 22.336 3.00771 22.9405C3.00771 22.9405 5.69431 35.2557 8.09428 45.9985" fill="white"/>
<path d="M26.6077 12.8857L24.3791 13.4C24.581 14.2784 24.6062 15.1881 24.4534 16.0763C24.3005 16.9644 23.9726 17.8134 23.4887 18.5737C23.0049 19.334 22.3747 19.9906 21.6349 20.5052C20.8951 21.0199 20.0603 21.3823 19.1791 21.5715C17.3923 21.9473 15.5294 21.6072 13.9907 20.6241C12.4521 19.6411 11.3604 18.0936 10.9506 16.3143L6.49342 17.2286C5.88216 17.362 5.30432 17.6179 4.79476 17.9809C4.28519 18.3439 3.8545 18.8063 3.52871 19.3404C3.20291 19.8745 2.98876 20.4691 2.89922 21.0883C2.80967 21.7075 2.84658 22.3384 3.00771 22.9429C3.00771 22.9429 5.06486 32.4858 7.46485 43.2287" stroke="#2573C0" stroke-width="4" stroke-linecap="round" stroke-linejoin="round"/>
<path d="M69.4647 12.8283C69.1236 13.7905 68.5899 14.6733 67.8973 15.4233C67.2047 16.1733 66.367 16.7749 65.435 17.1916C64.503 17.6083 63.4956 17.8314 62.475 17.8475C61.4539 17.8636 60.4407 17.6722 59.4962 17.285C58.551 16.8978 57.695 16.3229 56.979 15.595C56.263 14.8672 55.7022 14.0016 55.3307 13.0506C54.9591 12.0996 54.7845 11.0832 54.8174 10.0627C54.8503 9.04225 55.0899 8.03911 55.5219 7.11402L50.8934 4.9426C49.6574 4.42753 48.2682 4.42066 47.0272 4.92347C45.7863 5.42628 44.7936 6.39819 44.2648 7.62831L25.0648 52.8283L22.5505 58.5426C22.0355 59.7786 22.0286 61.1678 22.5314 62.4089C23.0342 63.6495 24.0061 64.6421 25.2362 65.1712L48.4362 75.0569C49.6722 75.5718 51.0614 75.5787 52.3024 75.0758C53.5434 74.5729 54.536 73.6015 55.0648 72.3712L76.779 21.2854C77.2579 20.0975 77.271 18.7726 76.815 17.5756C76.3596 16.3785 75.4693 15.3974 74.3219 14.8283L69.4647 12.8283Z" fill="#2573C0" fill-opacity="0.1"/>
<path d="M69.4647 12.8283C69.1236 13.7905 68.5899 14.6733 67.8973 15.4233C67.2047 16.1733 66.367 16.7749 65.435 17.1916C64.503 17.6083 63.4956 17.8314 62.475 17.8475C61.4539 17.8636 60.4407 17.6722 59.4962 17.285C58.551 16.8978 57.695 16.3229 56.979 15.595C56.263 14.8672 55.7022 14.0016 55.3307 13.0506C54.9591 12.0996 54.7845 11.0832 54.8174 10.0627C54.8503 9.04225 55.0899 8.03911 55.5219 7.11402L50.8934 4.9426C49.6574 4.42753 48.2682 4.42066 47.0272 4.92347C45.7863 5.42628 44.7936 6.39819 44.2648 7.62831L25.0648 52.8283L22.5505 58.5426C22.0355 59.7786 22.0286 61.1678 22.5314 62.4089C23.0342 63.6495 24.0061 64.6421 25.2362 65.1712L48.4362 75.0569C49.6722 75.5718 51.0614 75.5786 52.3024 75.0758C53.5434 74.5729 54.536 73.6015 55.0648 72.3712L76.779 21.2854C77.2579 20.0975 77.271 18.7726 76.815 17.5756C76.3596 16.3785 75.4693 15.3974 74.3219 14.8283L69.4647 12.8283Z" stroke="#2573C0" stroke-width="4" stroke-linecap="round" stroke-linejoin="round"/>
</svg>
