<svg width="100" height="100" viewBox="0 0 100 100" fill="none" xmlns="http://www.w3.org/2000/svg">
<path d="M42.9818 3.57202C21.2624 3.57202 3.65527 21.1791 3.65527 42.8985C3.65527 64.618 21.2624 82.2249 42.9818 82.2249C64.7013 82.2249 82.308 64.618 82.308 42.8985C82.308 21.1791 64.7013 3.57202 42.9818 3.57202Z" fill="#000B26" fill-opacity="0.05"/>
<path d="M67.5301 57.5842L96.2822 70.0417L67.5301 82.4987L38.7783 70.0417L67.5301 57.5842Z" fill="white"/>
<path d="M51.8508 89.2784C51.8508 89.2784 56.5976 95.5605 67.5273 95.5605C78.4571 95.5605 83.2292 89.2784 83.2292 89.2784L83.2263 75.7241H51.8223L51.8508 89.2784Z" fill="white"/>
<path d="M81.1837 52.2745C81.9187 49.2698 82.308 46.1297 82.308 42.8985C82.308 21.1791 64.7012 3.57202 42.9818 3.57202C21.2624 3.57202 3.65527 21.1791 3.65527 42.8985C3.65527 59.0305 13.3685 72.8942 27.2656 78.9592" stroke="#000B26" stroke-width="3" stroke-linecap="round" stroke-linejoin="round"/>
<path d="M3.65527 42.8987H82.308" stroke="#000B26" stroke-width="3" stroke-linecap="round" stroke-linejoin="round"/>
<path d="M31.2995 61.0495C29.3375 55.2201 28.165 49.1161 27.8438 42.8983C28.5867 28.5169 33.8838 14.7444 42.9693 3.57178C52.0548 14.7444 57.352 28.5169 58.095 42.8983C57.964 45.4325 57.6917 47.9477 57.2822 50.4331" stroke="#000B26" stroke-width="3" stroke-linecap="round" stroke-linejoin="round"/>
<path d="M67.56 58.4138L96.3417 70.8842L67.56 83.3548L38.7783 70.8842L67.56 58.4138Z" stroke="#000B26" stroke-width="3" stroke-linecap="round" stroke-linejoin="round"/>
<path d="M51.8359 76.5723L51.8644 90.1401C51.8644 90.1401 56.6163 96.4287 67.5573 96.4287C78.4979 96.4287 83.2751 90.1401 83.2751 90.1401L83.2722 76.5723" stroke="#000B26" stroke-width="3" stroke-linecap="round" stroke-linejoin="round"/>
<path d="M38.7783 92.8212V70.885" stroke="#000B26" stroke-width="3" stroke-linecap="round" stroke-linejoin="round"/>
</svg>
