<svg width="100" height="100" viewBox="0 0 100 100" fill="none" xmlns="http://www.w3.org/2000/svg">
<path d="M50.0006 32.1427C57.8903 32.1427 64.2863 25.7468 64.2863 17.857C64.2863 9.96722 57.8903 3.57129 50.0006 3.57129C42.1108 3.57129 35.7148 9.96722 35.7148 17.857C35.7148 25.7468 42.1108 32.1427 50.0006 32.1427Z" fill="#000B26" fill-opacity="0.05"/>
<path d="M80.5718 66.7144C81.914 65.4399 82.9825 63.9055 83.7132 62.2048C84.4432 60.5041 84.8204 58.6725 84.8204 56.8216C84.8204 54.9706 84.4432 53.1391 83.7132 51.4384C82.9825 49.7376 81.914 48.2033 80.5718 46.9287C77.8247 44.3211 74.1811 42.8674 70.3932 42.8674C66.6054 42.8674 62.962 44.3211 60.2147 46.9287L50.0004 57.143L39.7861 46.9287C37.0387 44.3211 33.3953 42.8674 29.6075 42.8674C25.8197 42.8674 22.1763 44.3211 19.4289 46.9287C18.0867 48.2033 17.018 49.7376 16.2877 51.4384C15.5573 53.1391 15.1807 54.9706 15.1807 56.8216C15.1807 58.6725 15.5573 60.5041 16.2877 62.2048C17.018 63.9055 18.0867 65.4399 19.4289 66.7144L50.0004 96.4284L80.5718 66.7144Z" fill="#000B26" fill-opacity="0.05"/>
<path d="M80.5718 66.7144C81.914 65.4399 82.9825 63.9055 83.7132 62.2048C84.4432 60.5041 84.8204 58.6725 84.8204 56.8216C84.8204 54.9706 84.4432 53.1391 83.7132 51.4384C82.9825 49.7376 81.914 48.2033 80.5718 46.9287C77.8247 44.3211 74.1811 42.8674 70.3932 42.8674C66.6054 42.8674 62.962 44.3211 60.2147 46.9287L50.0004 57.143L39.7861 46.9287C37.0387 44.3211 33.3953 42.8674 29.6075 42.8674C25.8197 42.8674 22.1763 44.3211 19.4289 46.9287C18.0867 48.2033 17.018 49.7376 16.2877 51.4384C15.5573 53.1391 15.1807 54.9706 15.1807 56.8216C15.1807 58.6725 15.5573 60.5041 16.2877 62.2048C17.018 63.9055 18.0867 65.4399 19.4289 66.7144L50.0004 96.4284L80.5718 66.7144Z" stroke="#000B26" stroke-width="3" stroke-linecap="round" stroke-linejoin="round"/>
<path d="M50.0006 32.1427C57.8903 32.1427 64.2863 25.7468 64.2863 17.857C64.2863 9.96722 57.8903 3.57129 50.0006 3.57129C42.1108 3.57129 35.7148 9.96722 35.7148 17.857C35.7148 25.7468 42.1108 32.1427 50.0006 32.1427Z" stroke="#000B26" stroke-width="3" stroke-linecap="round" stroke-linejoin="round"/>
</svg>
