<svg width="100" height="100" viewBox="0 0 100 100" fill="none" xmlns="http://www.w3.org/2000/svg">
<path fill-rule="evenodd" clip-rule="evenodd" d="M17.8567 3.57227H82.1424C86.0874 3.57227 89.2853 6.77023 89.2853 10.7151V89.2866C89.2853 93.2316 86.0874 96.4294 82.1424 96.4294H17.8567C13.9119 96.4294 10.7139 93.2316 10.7139 89.2866V10.7151C10.7139 6.77023 13.9119 3.57227 17.8567 3.57227ZM71.4282 42.858C71.4282 54.6926 61.8342 64.2866 49.9996 64.2866C38.1649 64.2866 28.571 54.6926 28.571 42.858C28.571 31.0233 38.1649 21.4294 49.9996 21.4294C61.8342 21.4294 71.4282 31.0233 71.4282 42.858Z" fill="#000B26" fill-opacity="0.1"/>
<path d="M49.9999 64.2868C61.8345 64.2868 71.4284 54.6929 71.4284 42.8583C71.4284 31.0236 61.8345 21.4297 49.9999 21.4297C38.1652 21.4297 28.5713 31.0236 28.5713 42.8583C28.5713 54.6929 38.1652 64.2868 49.9999 64.2868Z" fill="white"/>
<path d="M49.9999 64.2868C61.8345 64.2868 71.4284 54.6929 71.4284 42.8583C71.4284 31.0236 61.8345 21.4297 49.9999 21.4297C38.1652 21.4297 28.5713 31.0236 28.5713 42.8583C28.5713 54.6929 38.1652 64.2868 49.9999 64.2868Z" stroke="#08122A" stroke-width="3" stroke-linecap="round" stroke-linejoin="round"/>
<path d="M82.1424 3.57227H17.8567C13.9119 3.57227 10.7139 6.77023 10.7139 10.7151V89.2866C10.7139 93.2316 13.9119 96.4294 17.8567 96.4294H82.1424C86.0874 96.4294 89.2853 93.2316 89.2853 89.2866V10.7151C89.2853 6.77023 86.0874 3.57227 82.1424 3.57227Z" stroke="#08122A" stroke-width="3" stroke-linecap="round" stroke-linejoin="round"/>
<path d="M28.5713 42.8584H71.4284" stroke="#08122A" stroke-width="3" stroke-linecap="round" stroke-linejoin="round"/>
<path d="M50 64.2868V21.4297" stroke="#08122A" stroke-width="3" stroke-linecap="round" stroke-linejoin="round"/>
</svg>
