<svg width="18" height="18" viewBox="0 0 18 18" fill="none" xmlns="http://www.w3.org/2000/svg">
<path d="M9.00048 0C6.5563 0 6.24956 0.0106877 5.28959 0.0543752C4.33149 0.0982502 3.67751 0.249938 3.10528 0.4725C2.51336 0.702375 2.01125 1.00988 1.51102 1.51031C1.01041 2.01056 0.702916 2.51269 0.472298 3.10444C0.24918 3.67687 0.0973095 4.33106 0.0541858 5.28881C0.0112496 6.24881 0 6.55575 0 9C0 11.4443 0.0108748 11.7501 0.0543735 12.7101C0.0984347 13.6682 0.250118 14.3222 0.472486 14.8944C0.702541 15.4864 1.01003 15.9885 1.51045 16.4888C2.0105 16.9894 2.51261 17.2976 3.10416 17.5275C3.67676 17.7501 4.33093 17.9018 5.28884 17.9456C6.24881 17.9893 6.55536 18 8.99935 18C11.4437 18 11.7495 17.9893 12.7095 17.9456C13.6676 17.9018 14.3223 17.7501 14.8949 17.5275C15.4867 17.2976 15.988 16.9894 16.4881 16.4888C16.9887 15.9885 17.2962 15.4864 17.5268 14.8946C17.748 14.3222 17.8999 13.668 17.9449 12.7103C17.988 11.7503 17.9993 11.4443 17.9993 9C17.9993 6.55575 17.988 6.249 17.9449 5.289C17.8999 4.33087 17.748 3.67687 17.5268 3.10462C17.2962 2.51269 16.9887 2.01056 16.4881 1.51031C15.9875 1.00969 15.4868 0.702188 14.8944 0.4725C14.3206 0.249938 13.6663 0.0982502 12.7082 0.0543752C11.7482 0.0106877 11.4426 0 8.99766 0H9.00048ZM8.19313 1.62187C8.43274 1.6215 8.70011 1.62187 9.00048 1.62187C11.4034 1.62187 11.6882 1.6305 12.6371 1.67363C13.5146 1.71375 13.9908 1.86038 14.3081 1.98356C14.7281 2.14669 15.0275 2.34169 15.3423 2.65669C15.6573 2.97169 15.8523 3.27169 16.0158 3.69169C16.1389 4.00856 16.2858 4.48481 16.3257 5.36231C16.3688 6.31106 16.3782 6.59606 16.3782 8.99794C16.3782 11.3998 16.3688 11.6848 16.3257 12.6336C16.2856 13.5111 16.1389 13.9873 16.0158 14.3042C15.8526 14.7242 15.6573 15.0233 15.3423 15.3381C15.0273 15.6531 14.7282 15.8481 14.3081 16.0112C13.9912 16.1349 13.5146 16.2812 12.6371 16.3213C11.6884 16.3644 11.4034 16.3738 9.00048 16.3738C6.59736 16.3738 6.31256 16.3644 5.36384 16.3213C4.48636 16.2808 4.01013 16.1342 3.6927 16.011C3.27271 15.8479 2.97272 15.6529 2.65773 15.3379C2.34274 15.0229 2.14775 14.7236 1.98425 14.3034C1.86107 13.9866 1.71426 13.5103 1.67432 12.6328C1.6312 11.6841 1.62258 11.3991 1.62258 8.99569C1.62258 6.59231 1.6312 6.30881 1.67432 5.36006C1.71445 4.48256 1.86107 4.00631 1.98425 3.68906C2.14737 3.26906 2.34274 2.96906 2.65773 2.65406C2.97272 2.33906 3.27271 2.14406 3.6927 1.98056C4.00994 1.85681 4.48636 1.71056 5.36384 1.67025C6.19406 1.63275 6.5158 1.6215 8.19313 1.61963V1.62187ZM13.8045 3.11625C13.2082 3.11625 12.7245 3.59944 12.7245 4.19587C12.7245 4.79212 13.2082 5.27588 13.8045 5.27588C14.4007 5.27588 14.8844 4.79212 14.8844 4.19587C14.8844 3.59962 14.4007 3.11588 13.8045 3.11588V3.11625ZM9.00048 4.37812C6.44812 4.37812 4.37874 6.44756 4.37874 9C4.37874 11.5524 6.44812 13.6209 9.00048 13.6209C11.5528 13.6209 13.6215 11.5524 13.6215 9C13.6215 6.44756 11.5526 4.37812 9.00029 4.37812H9.00048ZM9.00048 6C10.6572 6 12.0004 7.34306 12.0004 9C12.0004 10.6567 10.6572 12 9.00048 12C7.34359 12 6.00057 10.6567 6.00057 9C6.00057 7.34306 7.34359 6 9.00048 6Z" fill="white"/>
</svg>
