<svg width="26" height="26" viewBox="0 0 26 26" fill="none" xmlns="http://www.w3.org/2000/svg">
<g clip-path="url(#clip0_0_74)">
<path d="M13.0001 25.0716C19.6671 25.0716 25.0716 19.6671 25.0716 13.0001C25.0716 6.33328 19.6671 0.928711 13.0001 0.928711C6.33328 0.928711 0.928711 6.33328 0.928711 13.0001C0.928711 19.6671 6.33328 25.0716 13.0001 25.0716Z" fill="#000B26" fill-opacity="0.1"/>
<path d="M13.0001 25.0716C19.6671 25.0716 25.0716 19.6671 25.0716 13.0001C25.0716 6.33328 19.6671 0.928711 13.0001 0.928711C6.33328 0.928711 0.928711 6.33328 0.928711 13.0001C0.928711 19.6671 6.33328 25.0716 13.0001 25.0716Z" stroke="#08122A" stroke-width="1.85714" stroke-linecap="round" stroke-linejoin="round"/>
<path d="M8.35742 9.28557L13.0003 5.57129L17.6431 9.28557" stroke="#08122A" stroke-width="1.85714" stroke-linecap="round" stroke-linejoin="round"/>
<path d="M8.35742 16.7148L13.0003 20.4291L17.6431 16.7148" stroke="#08122A" stroke-width="1.85714" stroke-linecap="round" stroke-linejoin="round"/>
<path d="M13.0004 13.4637C12.744 13.4637 12.5361 13.2559 12.5361 12.9994C12.5361 12.743 12.744 12.5352 13.0004 12.5352" stroke="#08122A" stroke-width="1.85714" stroke-linecap="round" stroke-linejoin="round"/>
<path d="M13 13.4637C13.2564 13.4637 13.4643 13.2559 13.4643 12.9994C13.4643 12.743 13.2564 12.5352 13 12.5352" stroke="#08122A" stroke-width="1.85714" stroke-linecap="round" stroke-linejoin="round"/>
<path d="M7.05706 13.4637C6.80064 13.4637 6.59277 13.2559 6.59277 12.9994C6.59277 12.743 6.80064 12.5352 7.05706 12.5352" stroke="#08122A" stroke-width="1.85714" stroke-linecap="round" stroke-linejoin="round"/>
<path d="M7.05664 13.4637C7.31306 13.4637 7.52093 13.2559 7.52093 12.9994C7.52093 12.743 7.31306 12.5352 7.05664 12.5352" stroke="#08122A" stroke-width="1.85714" stroke-linecap="round" stroke-linejoin="round"/>
<path d="M18.9428 13.4637C18.6863 13.4637 18.4785 13.2559 18.4785 12.9994C18.4785 12.743 18.6863 12.5352 18.9428 12.5352" stroke="#08122A" stroke-width="1.85714" stroke-linecap="round" stroke-linejoin="round"/>
<path d="M18.9424 13.4637C19.1989 13.4637 19.4067 13.2559 19.4067 12.9994C19.4067 12.743 19.1989 12.5352 18.9424 12.5352" stroke="#08122A" stroke-width="1.85714" stroke-linecap="round" stroke-linejoin="round"/>
</g>
<defs>
<clipPath id="clip0_0_74">
<rect width="26" height="26" fill="white"/>
</clipPath>
</defs>
</svg>
