<svg width="80" height="80" viewBox="0 0 80 80" fill="none" xmlns="http://www.w3.org/2000/svg">
<g clip-path="url(#clip0_0_14)">
<path fill-rule="evenodd" clip-rule="evenodd" d="M37.9426 76.7598C39.2665 77.2706 40.733 77.2706 42.0569 76.7598C52.3802 72.7954 61.2583 65.7929 67.5184 56.6771C73.7786 47.5613 77.1264 36.761 77.1198 25.7027V8.56551C77.1182 7.05196 76.5163 5.60084 75.4461 4.53061C74.3758 3.46037 72.9247 2.85845 71.4112 2.85693H8.58832C7.0728 2.85693 5.61934 3.45897 4.54771 4.53061C3.47607 5.60225 2.87403 7.0557 2.87403 8.57122V25.7027C2.86781 36.7617 6.21647 47.5625 12.4777 56.6784C18.7389 65.7942 27.6182 72.7963 37.9426 76.7598ZM34.2855 17.1884H45.714V28.6169H57.1312V40.0341H45.714V51.4626H34.2855V40.0341H22.8683V28.6112H34.2855V17.1884Z" fill="#2573C0" fill-opacity="0.1"/>
<path d="M45.7139 17.1885H34.2853V28.617H22.8682V40.0342H34.2853V51.4628H45.7139V40.0342H57.131V28.6113H45.7139V17.1885Z" fill="white"/>
<path d="M42.057 76.7598C40.7332 77.2706 39.2666 77.2706 37.9427 76.7598C27.6194 72.7954 18.7414 65.7929 12.4812 56.6771C6.22105 47.5613 2.87322 36.761 2.87989 25.7026V8.5655C2.88141 7.05196 3.48333 5.60084 4.55357 4.53061C5.6238 3.46037 7.07492 2.85845 8.58846 2.85693H71.4113C72.9268 2.85693 74.3803 3.45897 75.4519 4.53061C76.5236 5.60225 77.1256 7.0557 77.1256 8.57122V25.7026C77.1318 36.7617 73.7832 47.5625 67.5219 56.6784C61.2607 65.7942 52.3815 72.7963 42.057 76.7598Z" stroke="#2573C0" stroke-width="4" stroke-linecap="round" stroke-linejoin="round"/>
<path d="M45.7139 17.1885H34.2853V28.617H22.8682V40.0342H34.2853V51.4628H45.7139V40.0342H57.131V28.6113H45.7139V17.1885Z" stroke="#2573C0" stroke-width="4" stroke-linecap="round" stroke-linejoin="round"/>
</g>
<defs>
<clipPath id="clip0_0_14">
<rect width="80" height="80" fill="white"/>
</clipPath>
</defs>
</svg>
