<svg width="19" height="21" viewBox="0 0 19 21" fill="none" xmlns="http://www.w3.org/2000/svg">
<path d="M2.82142 4.46763C4.05513 4.46763 5.05524 3.46752 5.05524 2.23382C5.05524 1.00011 4.05513 0 2.82142 0C1.58772 0 0.587608 1.00011 0.587608 2.23382C0.587608 3.46752 1.58772 4.46763 2.82142 4.46763Z" fill="white"/>
<path d="M7.10103 6.11848H10.8032V7.81446C10.8032 7.81446 11.8078 5.8052 14.5413 5.8052C16.9796 5.8052 18.9995 7.00639 18.9995 10.6677V18.3884H15.1631V11.6033C15.1631 9.44343 14.01 9.20588 13.1313 9.20588C11.3078 9.20588 10.9956 10.7788 10.9956 11.885V18.3884H7.10103V6.11848Z" fill="white"/>
<path d="M0.87415 6.1185H4.7687V18.3884H0.87415V6.1185Z" fill="white"/>
</svg>
