<svg width="100" height="100" viewBox="0 0 100 100" fill="none" xmlns="http://www.w3.org/2000/svg">
<path d="M39.6463 44.702C41.7072 42.6412 44.5022 41.4834 47.4167 41.4834H69.3847C72.9387 47.0345 74.9994 53.6338 74.9994 60.7142C74.9994 75.6135 65.8759 88.3813 52.9112 93.737V68.956C52.9112 67.4987 52.3323 66.1012 51.3019 65.0708C50.2715 64.0403 48.874 63.4615 47.4167 63.4615C44.5022 63.4615 41.7072 62.3037 39.6463 60.2428C37.5854 58.182 36.4277 55.3869 36.4277 52.4724C36.4277 49.558 37.5854 46.7629 39.6463 44.702Z" fill="white"/>
<path d="M25.0778 69.4273C23.017 67.3665 20.2219 66.2087 17.3075 66.2087H3.99121C6.0666 79.6492 15.6359 90.6164 28.2965 94.7057V77.1978C28.2965 74.2835 27.1387 71.4878 25.0778 69.4273Z" fill="white"/>
<path d="M37.5767 25.0403C18.6458 25.9321 3.57129 41.5629 3.57129 60.7144C3.57129 62.5828 3.71477 64.4178 3.99132 66.2088H17.3075C20.2219 66.2088 23.0171 67.3666 25.0779 69.4274C27.1387 71.4879 28.2965 74.2836 28.2965 77.1979V94.7065C31.7584 95.8243 35.4514 96.4286 39.2856 96.4286C44.111 96.4286 48.7129 95.4715 52.9119 93.7372V68.9561C52.9119 67.4989 52.333 66.1013 51.3026 65.0708C50.2722 64.0405 48.8746 63.4616 47.4174 63.4616C44.5029 63.4616 41.7078 62.3038 39.6469 60.243C37.5861 58.1821 36.4284 55.3871 36.4284 52.4726C36.4284 49.5581 37.5861 46.763 39.6469 44.7021C41.7078 42.6414 44.5029 41.4836 47.4174 41.4836H52.8763C52.741 41.2679 52.6379 41.0326 52.5713 40.7849L49.0713 28.7849L47.2141 28.142L37.5767 25.0403Z" fill="#000B26" fill-opacity="0.05"/>
<path d="M94.7145 14.0704L87.5716 11.6418C87.0695 11.4713 86.5259 11.4697 86.0224 11.6374C85.5195 11.805 85.0852 12.1328 84.7859 12.5704L79.5716 20.6418L51.0002 6.35608C48.7421 5.02528 46.2178 4.21003 43.6078 3.96865C40.9979 3.72727 38.3669 4.06574 35.9029 4.95983C33.4391 5.85393 31.2032 7.28154 29.3555 9.14054C27.5077 10.9995 26.0936 13.244 25.2145 15.7133C24.9722 16.3538 24.8681 17.0384 24.9091 17.722C24.95 18.4057 25.1351 19.073 25.4521 19.68C25.7691 20.2871 26.211 20.8203 26.7486 21.2445C27.2862 21.6688 27.9075 21.9746 28.5716 22.1418L47.2145 28.1418L49.0716 28.7847L52.5716 40.7847C52.6841 41.2025 52.9001 41.5852 53.1998 41.8974C53.4994 42.2095 53.873 42.441 54.2859 42.5704L62.7145 45.2847C63.1448 45.4248 63.6039 45.4522 64.0478 45.364C64.4917 45.2759 64.9055 45.0753 65.2496 44.7813C65.5937 44.4874 65.8566 44.11 66.0131 43.6854C66.1695 43.2608 66.2143 42.803 66.1431 42.3561L64.2859 33.4275H65.5002L83.7145 39.3561C84.9081 39.7675 86.2159 39.6907 87.3531 39.1421C88.4902 38.5935 89.3652 37.6178 89.7859 36.4275L96.2145 16.6418C96.2852 16.1075 96.1759 15.5648 95.9045 15.0993C95.6331 14.6338 95.2145 14.2718 94.7145 14.0704Z" fill="white"/>
<path d="M94.7145 14.0704L87.5716 11.6418C87.0695 11.4713 86.5259 11.4697 86.0224 11.6374C85.5195 11.805 85.0852 12.1328 84.7859 12.5704L79.5716 20.6418L51.0002 6.35608C48.7421 5.02528 46.2178 4.21003 43.6078 3.96865C40.9979 3.72727 38.3669 4.06574 35.9029 4.95983C33.4391 5.85393 31.2032 7.28154 29.3555 9.14054C27.5077 10.9995 26.0936 13.244 25.2145 15.7133C24.9722 16.3538 24.8681 17.0384 24.9091 17.722C24.95 18.4057 25.1351 19.073 25.4521 19.68C25.7691 20.2871 26.211 20.8203 26.7486 21.2445C27.2862 21.6688 27.9075 21.9746 28.5716 22.1418L47.2145 28.1418L49.0716 28.7847L52.5716 40.7847C52.6841 41.2025 52.9001 41.5852 53.1998 41.8974C53.4994 42.2095 53.873 42.441 54.2859 42.5704L62.7145 45.2847C63.1448 45.4248 63.6039 45.4522 64.0478 45.364C64.4917 45.2759 64.9055 45.0753 65.2496 44.7813C65.5937 44.4874 65.8566 44.11 66.0131 43.6854C66.1695 43.2608 66.2143 42.803 66.1431 42.3561L64.2859 33.4275H65.5002L83.7145 39.3561C84.9081 39.7675 86.2159 39.6907 87.3531 39.1421C88.4902 38.5935 89.3652 37.6178 89.7859 36.4275L96.2145 16.6418C96.2852 16.1075 96.1759 15.5648 95.9045 15.0993C95.6331 14.6338 95.2145 14.2718 94.7145 14.0704Z" stroke="#000B26" stroke-width="3" stroke-linecap="round" stroke-linejoin="round"/>
<path d="M74.9999 60.7144C74.9992 66.7051 73.492 72.5994 70.6166 77.8551C67.741 83.1108 63.5896 87.558 58.5445 90.7887C53.4994 94.0194 47.7228 95.9287 41.7463 96.3415C35.7698 96.7544 29.7854 95.6572 24.3441 93.1508C18.9029 90.6444 14.1795 86.8094 10.6087 81.9994C7.03799 77.1887 4.73464 71.558 3.9107 65.624C3.08676 59.6902 3.7687 53.6445 5.89377 48.0433C8.01886 42.4421 11.5187 37.4655 16.0713 33.5715" stroke="#000B26" stroke-width="3" stroke-linecap="round" stroke-linejoin="round"/>
<path d="M37.7144 47.5C36.9595 49.0586 36.5687 50.7683 36.5715 52.5C36.562 53.9379 36.8382 55.3632 37.3841 56.6934C37.93 58.0236 38.7346 59.2321 39.7512 60.2489C40.768 61.2656 41.9765 62.0702 43.3067 62.6161C44.6369 63.1619 46.0623 63.4381 47.5001 63.4286C48.9588 63.4286 50.3577 64.0081 51.3892 65.0395C52.4207 66.0709 53.0001 67.4699 53.0001 68.9286V93.7144" stroke="#000B26" stroke-width="3" stroke-linecap="round" stroke-linejoin="round"/>
<path d="M4.07129 66.2144H17.2856C18.754 66.1762 20.2151 66.4326 21.5829 66.9683C22.9506 67.5039 24.1972 68.3081 25.2491 69.3334C26.301 70.3587 27.1369 71.5843 27.7075 72.9379C28.2781 74.2915 28.5718 75.7458 28.5713 77.2143V94.7143" stroke="#000B26" stroke-width="3" stroke-linecap="round" stroke-linejoin="round"/>
</svg>
