<svg width="100" height="100" viewBox="0 0 100 100" fill="none" xmlns="http://www.w3.org/2000/svg">
<path fill-rule="evenodd" clip-rule="evenodd" d="M17.8572 3.57227H82.1429C86.0879 3.57227 89.2858 6.77023 89.2858 10.7151V89.2866C89.2858 93.2316 86.0879 96.4294 82.1429 96.4294H17.8572C13.9124 96.4294 10.7144 93.2316 10.7144 89.2866V10.7151C10.7144 6.77023 13.9124 3.57227 17.8572 3.57227ZM71.4286 42.858C71.4286 54.6926 61.8347 64.2866 50.0001 64.2866C38.1654 64.2866 28.5715 54.6926 28.5715 42.858C28.5715 31.0233 38.1654 21.4294 50.0001 21.4294C61.8347 21.4294 71.4286 31.0233 71.4286 42.858Z" fill="#000B26" fill-opacity="0.1"/>
<path d="M49.9999 64.2868C61.8345 64.2868 71.4284 54.6929 71.4284 42.8583C71.4284 31.0236 61.8345 21.4297 49.9999 21.4297C38.1652 21.4297 28.5713 31.0236 28.5713 42.8583C28.5713 54.6929 38.1652 64.2868 49.9999 64.2868Z" fill="white"/>
<path d="M49.9999 64.2868C61.8345 64.2868 71.4284 54.6929 71.4284 42.8583C71.4284 31.0236 61.8345 21.4297 49.9999 21.4297C38.1652 21.4297 28.5713 31.0236 28.5713 42.8583C28.5713 54.6929 38.1652 64.2868 49.9999 64.2868Z" stroke="#08122A" stroke-width="3" stroke-linecap="round" stroke-linejoin="round"/>
<path d="M82.1429 3.57227H17.8572C13.9124 3.57227 10.7144 6.77023 10.7144 10.7151V89.2866C10.7144 93.2316 13.9124 96.4294 17.8572 96.4294H82.1429C86.0879 96.4294 89.2858 93.2316 89.2858 89.2866V10.7151C89.2858 6.77023 86.0879 3.57227 82.1429 3.57227Z" stroke="#08122A" stroke-width="3" stroke-linecap="round" stroke-linejoin="round"/>
<path d="M28.5713 42.8584H71.4284" stroke="#08122A" stroke-width="3" stroke-linecap="round" stroke-linejoin="round"/>
<path d="M50 64.2868V21.4297" stroke="#08122A" stroke-width="3" stroke-linecap="round" stroke-linejoin="round"/>
</svg>
