<svg width="19" height="21" viewBox="0 0 19 21" fill="none" xmlns="http://www.w3.org/2000/svg">
<path d="M2.8215 4.46775C4.05523 4.46775 5.05537 3.46761 5.05537 2.23387C5.05537 1.00014 4.05523 0 2.8215 0C1.58776 0 0.587624 1.00014 0.587624 2.23387C0.587624 3.46761 1.58776 4.46775 2.8215 4.46775Z" fill="white"/>
<path d="M7.10122 6.11864H10.8035V7.81466C10.8035 7.81466 11.8081 5.80535 14.5416 5.80535C16.9801 5.80535 19 7.00657 19 10.668V18.3889H15.1635V11.6036C15.1635 9.44368 14.0103 9.20612 13.1316 9.20612C11.3081 9.20612 10.9959 10.7791 10.9959 11.8853V18.3889H7.10122V6.11864Z" fill="white"/>
<path d="M0.874173 6.11866H4.76883V18.3889H0.874173V6.11866Z" fill="white"/>
</svg>
