<svg width="32" height="32" viewBox="0 0 32 32" fill="none" xmlns="http://www.w3.org/2000/svg">
<g clip-path="url(#clip0_0_54)">
<path d="M30.8576 24.001V28.5724C30.8576 29.1786 30.6167 29.7601 30.1881 30.1886C29.7596 30.6172 29.1781 30.8581 28.5719 30.8581H24.0005" stroke="#08122A" stroke-width="2" stroke-linecap="round" stroke-linejoin="round"/>
<path d="M24 1.14355H28.5714C29.1776 1.14355 29.7591 1.38437 30.1877 1.81302C30.6162 2.24168 30.8571 2.82305 30.8571 3.42927V8.0007" stroke="#08122A" stroke-width="2" stroke-linecap="round" stroke-linejoin="round"/>
<path d="M1.14307 8.0007V3.42927C1.14307 2.82305 1.38388 2.24168 1.81254 1.81302C2.24119 1.38437 2.82256 1.14355 3.42878 1.14355H8.00021" stroke="#08122A" stroke-width="2" stroke-linecap="round" stroke-linejoin="round"/>
<path d="M8.00021 30.8581H3.42878C2.82256 30.8581 2.24119 30.6172 1.81254 30.1886C1.38388 29.7601 1.14307 29.1786 1.14307 28.5724V24.001" stroke="#08122A" stroke-width="2" stroke-linecap="round" stroke-linejoin="round"/>
<path d="M15.9996 14.8577C18.5243 14.8577 20.571 12.811 20.571 10.2862C20.571 7.76154 18.5243 5.71484 15.9996 5.71484C13.4749 5.71484 11.4282 7.76154 11.4282 10.2862C11.4282 12.811 13.4749 14.8577 15.9996 14.8577Z" fill="#000B26" fill-opacity="0.1"/>
<path d="M24.6935 25.144C24.1029 23.3024 22.9429 21.6961 21.3807 20.5565C19.8184 19.4168 17.9346 18.8027 16.0008 18.8027C14.067 18.8027 12.1832 19.4168 10.6209 20.5565C9.05862 21.6961 7.89862 23.3024 7.30811 25.144H24.6935Z" fill="#000B26" fill-opacity="0.1"/>
<path d="M15.9996 14.8577C18.5243 14.8577 20.571 12.811 20.571 10.2862C20.571 7.76154 18.5243 5.71484 15.9996 5.71484C13.4749 5.71484 11.4282 7.76154 11.4282 10.2862C11.4282 12.811 13.4749 14.8577 15.9996 14.8577Z" stroke="#08122A" stroke-width="2" stroke-linecap="round" stroke-linejoin="round"/>
<path d="M24.6935 25.144C24.1029 23.3024 22.9429 21.6961 21.3807 20.5565C19.8184 19.4168 17.9346 18.8027 16.0008 18.8027C14.067 18.8027 12.1832 19.4168 10.6209 20.5565C9.05862 21.6961 7.89862 23.3024 7.30811 25.144H24.6935Z" stroke="#08122A" stroke-width="2" stroke-linecap="round" stroke-linejoin="round"/>
</g>
<defs>
<clipPath id="clip0_0_54">
<rect width="32" height="32" fill="white"/>
</clipPath>
</defs>
</svg>
