<svg width="80" height="80" viewBox="0 0 80 80" fill="none" xmlns="http://www.w3.org/2000/svg">
<path fill-rule="evenodd" clip-rule="evenodd" d="M4.5311 66.6941C5.60274 67.7655 7.05616 68.3678 8.57171 68.3678H11.4166V68.3615C11.4166 63.6244 15.2569 59.7838 19.9941 59.7838C24.7314 59.7838 28.5716 63.6244 28.5716 68.3615V68.3678H51.4167V68.3615C51.4167 63.6244 55.257 59.7838 59.994 59.7838C64.7311 59.7838 68.5717 63.6244 68.5717 68.3615V68.3678H71.4288C72.9443 68.3678 74.398 67.7655 75.4694 66.6941C76.5409 65.6221 77.1431 64.1689 77.1431 62.6535V51.2248C77.1431 49.7093 76.5409 48.2558 75.4694 47.1842C74.398 46.1125 72.9443 45.5105 71.4288 45.5105H60.0003L55.886 32.2533C55.4884 31.0706 54.7146 30.0505 53.6827 29.3489C52.6509 28.6472 51.4178 28.3026 50.1717 28.3676H27.2574C26.0113 28.3026 24.7782 28.6472 23.7464 29.3489C22.7145 30.0505 21.9407 31.0706 21.5431 32.2533L17.1431 45.5105H8.57171C7.05616 45.5105 5.60274 46.1125 4.5311 47.1842C3.45946 48.2558 2.85742 49.7093 2.85742 51.2248V62.6535C2.85742 64.1689 3.45946 65.6221 4.5311 66.6941Z" fill="#2573C0" fill-opacity="0.1"/>
<path d="M59.9942 76.9395C55.2572 76.9395 51.417 73.099 51.417 68.3618C51.417 63.6247 55.2572 59.7847 59.9942 59.7847C64.7319 59.7847 68.5719 63.6247 68.5719 68.3618C68.5719 73.099 64.7319 76.9395 59.9942 76.9395Z" fill="white"/>
<path d="M19.9945 76.9395C15.2573 76.9395 11.417 73.0995 11.417 68.3618C11.417 63.6247 15.2573 59.7847 19.9945 59.7847C24.7317 59.7847 28.572 63.6247 28.572 68.3618C28.572 73.0995 24.7317 76.9395 19.9945 76.9395Z" fill="white"/>
<path d="M31.0325 28.3676H27.2574C26.0113 28.3026 24.7782 28.6472 23.7464 29.3489C22.7146 30.0505 21.9407 31.0706 21.5431 32.2533L17.1431 45.5105H8.57171C7.05616 45.5105 5.60274 46.1125 4.5311 47.1842C3.45947 48.2558 2.85742 49.7093 2.85742 51.2248V62.6535C2.85742 64.1689 3.45947 65.6221 4.5311 66.6941C5.60274 67.7655 7.05616 68.3678 8.57171 68.3678H11.4289" stroke="#2573C0" stroke-width="4" stroke-linecap="round" stroke-linejoin="round"/>
<path d="M68.5713 45.5132H71.4284C72.9439 45.5132 74.3976 46.1152 75.469 47.1868C76.5404 48.2585 77.1427 49.7119 77.1427 51.2275V62.6562C77.1427 64.1716 76.5404 65.6247 75.469 66.6967C74.3976 67.7682 72.9439 68.3704 71.4284 68.3704H68.5713" stroke="#2573C0" stroke-width="4" stroke-linecap="round" stroke-linejoin="round"/>
<path d="M59.9942 76.9395C55.2572 76.9395 51.417 73.099 51.417 68.3618C51.417 63.6247 55.2572 59.7847 59.9942 59.7847C64.7319 59.7847 68.5719 63.6247 68.5719 68.3618C68.5719 73.099 64.7319 76.9395 59.9942 76.9395Z" stroke="#2573C0" stroke-width="4" stroke-linecap="round" stroke-linejoin="round"/>
<path d="M19.9945 76.9395C15.2573 76.9395 11.417 73.0995 11.417 68.3618C11.417 63.6247 15.2573 59.7847 19.9945 59.7847C24.7317 59.7847 28.572 63.6247 28.572 68.3618C28.572 73.0995 24.7317 76.9395 19.9945 76.9395Z" stroke="#2573C0" stroke-width="4" stroke-linecap="round" stroke-linejoin="round"/>
<path d="M51.4164 68.3706H28.5713" stroke="#2573C0" stroke-width="4" stroke-linecap="round" stroke-linejoin="round"/>
<path d="M42.377 22.6826C40.3717 22.3338 40.3717 19.455 42.377 19.1062C49.6419 17.8423 55.4201 12.3088 56.997 5.10532L57.1179 4.55315C57.5518 2.57125 60.3736 2.55892 60.825 4.53695L60.9718 5.18044C62.6067 12.3499 68.3867 17.8367 75.6313 19.0971C77.6467 19.4477 77.6467 22.3411 75.6313 22.6918C68.3867 23.9522 62.6067 29.4389 60.9718 36.6084L60.825 37.2519C60.3736 39.2299 57.5518 39.2175 57.1179 37.2356L56.997 36.6835C55.4201 29.48 49.6419 23.9465 42.377 22.6826Z" fill="white"/>
<path d="M42.377 22.6826C40.3717 22.3338 40.3717 19.455 42.377 19.1062C49.6419 17.8423 55.4201 12.3088 56.997 5.10532L57.1179 4.55315C57.5518 2.57125 60.3736 2.55892 60.825 4.53695L60.9718 5.18044C62.6067 12.3499 68.3867 17.8367 75.6313 19.0971C77.6467 19.4477 77.6467 22.3411 75.6313 22.6918C68.3867 23.9522 62.6067 29.4389 60.9718 36.6084L60.825 37.2519C60.3736 39.2299 57.5518 39.2175 57.1179 37.2356L56.997 36.6835C55.4201 29.48 49.6419 23.9465 42.377 22.6826Z" stroke="#2573C0" stroke-width="4" stroke-linecap="round" stroke-linejoin="round"/>
</svg>
