<svg width="220" height="32" viewBox="0 0 220 32" fill="none" xmlns="http://www.w3.org/2000/svg">
<path d="M28 3.99902L39.9961 3.99902V7.15256e-07L28 7.15256e-07V3.99902Z" fill="#08122A"/>
<path d="M35.998 7.99805H31.999V24.0019H35.998V7.99805Z" fill="#08122A"/>
<path d="M28 32H39.9961V28.001H28V32Z" fill="#08122A"/>
<path d="M78.2178 22.9516C76.8175 20.991 76.0006 18.5947 76.0006 16.0039C76.0006 9.37514 81.3763 4.0068 87.9967 4.0068C90.5873 4.0068 92.9834 4.8315 94.9438 6.22416L97.8067 3.36105C95.0994 1.25261 91.692 0 87.9967 0C79.1591 0 71.9941 7.16557 71.9941 16.0039C71.9941 19.6995 73.2466 23.1072 75.3549 25.8147L78.2178 22.9516Z" fill="#08122A"/>
<path d="M97.7759 9.04866C99.1762 11.0093 99.9931 13.4056 99.9931 15.9964C99.9931 22.6251 94.6174 27.9934 87.997 27.9934C85.4064 27.9934 83.0103 27.1687 81.0499 25.7761L78.187 28.6392C80.8943 30.7476 84.3017 32.0003 87.997 32.0003C96.8346 32.0003 104 24.8347 104 15.9964C104 12.3008 102.747 8.89306 100.639 6.18555L97.7759 9.04866Z" fill="#08122A"/>
<path d="M147.999 0H131.997V3.99902H147.999C152.418 3.99902 155.996 7.57792 155.996 11.9971C155.996 16.4162 152.418 19.9951 147.999 19.9951H144V23.9941H147.999C154.627 23.9941 159.995 18.618 159.995 11.9971C159.995 5.37612 154.627 0 147.999 0Z" fill="#08122A"/>
<path d="M139.995 7.99805H135.996V32H139.995V7.99805Z" fill="#08122A"/>
<path d="M192.001 7.99805V11.9971H196V32H199.999V7.99805H192.001Z" fill="#08122A"/>
<path d="M220 20.0029C220 13.3742 214.624 8.00586 208.004 8.00586C201.383 8.00586 196.008 13.382 196.008 20.0029H200.006C200.006 15.5838 203.585 12.0049 208.004 12.0049C212.423 12.0049 216.001 15.5838 216.001 20.0029V32H220V20.0029Z" fill="#08122A"/>
</svg>
