<svg width="26" height="26" viewBox="0 0 26 26" fill="none" xmlns="http://www.w3.org/2000/svg">
<g clip-path="url(#clip0_0_137)">
<path d="M2.78585 3.71387C2.2933 3.71387 1.82094 3.90954 1.47266 4.25781C1.12437 4.60609 0.928711 5.07846 0.928711 5.57101V23.2139C0.928711 23.7064 1.12437 24.1788 1.47266 24.5271C1.82094 24.8753 2.2933 25.071 2.78585 25.071H23.2144C23.7069 25.071 24.1794 24.8753 24.5276 24.5271C24.8758 24.1788 25.0716 23.7064 25.0716 23.2139V5.57101C25.0716 5.07846 24.8758 4.60609 24.5276 4.25781C24.1794 3.90954 23.7069 3.71387 23.2144 3.71387H2.78585Z" fill="#000B26" fill-opacity="0.1"/>
<path d="M6.5 0.927734V6.49916" stroke="#08122A" stroke-width="1.85714" stroke-linecap="round" stroke-linejoin="round"/>
<path d="M19.5 0.927734V6.49916" stroke="#08122A" stroke-width="1.85714" stroke-linecap="round" stroke-linejoin="round"/>
<path d="M6.5 3.71387H15.7857" stroke="#08122A" stroke-width="1.85714" stroke-linecap="round" stroke-linejoin="round"/>
<path d="M2.78585 3.71387C2.2933 3.71387 1.82094 3.90954 1.47266 4.25781C1.12437 4.60609 0.928711 5.07846 0.928711 5.57101V23.2139C0.928711 23.7064 1.12437 24.1788 1.47266 24.5271C1.82094 24.8753 2.2933 25.071 2.78585 25.071H23.2144C23.7069 25.071 24.1794 24.8753 24.5276 24.5271C24.8758 24.1788 25.0716 23.7064 25.0716 23.2139V5.57101C25.0716 5.07846 24.8758 4.60609 24.5276 4.25781C24.1794 3.90954 23.7069 3.71387 23.2144 3.71387H19.5001" stroke="#08122A" stroke-width="1.85714" stroke-linecap="round" stroke-linejoin="round"/>
<path d="M13.4621 8.6395L15.0158 11.765C15.0506 11.844 15.1057 11.9125 15.1755 11.9632C15.2453 12.014 15.3274 12.0454 15.4133 12.0541L18.864 12.578C18.9626 12.5908 19.0556 12.6315 19.1319 12.6952C19.2085 12.7589 19.2651 12.8431 19.2954 12.9378C19.3256 13.0326 19.3284 13.134 19.3032 13.2303C19.2781 13.3265 19.2259 13.4136 19.1531 13.4813L16.6057 15.9022C16.5677 15.9747 16.5479 16.0553 16.5479 16.1371C16.5479 16.2189 16.5677 16.2995 16.6057 16.3719L17.0935 19.8046C17.1143 19.9038 17.1059 20.0069 17.0692 20.1014C17.0326 20.1959 16.9693 20.2778 16.8871 20.3371C16.8049 20.3963 16.7072 20.4305 16.6059 20.4355C16.5047 20.4403 16.4042 20.4156 16.3166 20.3645L13.2453 18.7386C13.1658 18.7028 13.0796 18.6842 12.9924 18.6842C12.9052 18.6842 12.819 18.7028 12.7395 18.7386L9.66816 20.3645C9.58062 20.4156 9.48011 20.4403 9.37886 20.4355C9.27759 20.4305 9.17992 20.3963 9.09769 20.3371C9.01545 20.2778 8.95218 20.1959 8.91556 20.1014C8.87892 20.0069 8.8705 19.9038 8.89132 19.8046L9.46943 16.3719C9.4943 16.2923 9.49905 16.2077 9.4833 16.1257C9.46754 16.0438 9.43175 15.967 9.3791 15.9022L6.83173 13.4632C6.76417 13.3948 6.71674 13.3091 6.69466 13.2155C6.67257 13.1218 6.6767 13.024 6.70654 12.9325C6.7364 12.8411 6.79084 12.7597 6.86392 12.6971C6.93699 12.6346 7.02586 12.5934 7.1208 12.578L10.5715 12.0721C10.6574 12.0634 10.7395 12.0321 10.8093 11.9813C10.8791 11.9305 10.9342 11.8621 10.9689 11.783L12.5227 8.65757C12.5642 8.56909 12.6297 8.49401 12.7118 8.4408C12.7938 8.38761 12.889 8.35842 12.9868 8.35654C13.0845 8.35467 13.1808 8.38016 13.2648 8.43018C13.3488 8.48017 13.4172 8.55267 13.4621 8.6395Z" fill="white"/>
<path d="M13.4621 8.6395L15.0158 11.765C15.0506 11.844 15.1057 11.9125 15.1755 11.9632C15.2453 12.014 15.3274 12.0454 15.4133 12.0541L18.864 12.578C18.9626 12.5908 19.0556 12.6315 19.1319 12.6952C19.2085 12.7589 19.2651 12.8431 19.2954 12.9378C19.3256 13.0326 19.3284 13.134 19.3032 13.2303C19.2781 13.3265 19.2259 13.4136 19.1531 13.4813L16.6057 15.9022C16.5677 15.9747 16.5479 16.0553 16.5479 16.1371C16.5479 16.2189 16.5677 16.2995 16.6057 16.3719L17.0935 19.8046C17.1143 19.9038 17.1059 20.0069 17.0692 20.1014C17.0326 20.1959 16.9693 20.2778 16.8871 20.3371C16.8049 20.3963 16.7072 20.4305 16.6059 20.4355C16.5047 20.4403 16.4042 20.4156 16.3166 20.3646L13.2453 18.7386C13.1658 18.7028 13.0796 18.6842 12.9924 18.6842C12.9052 18.6842 12.819 18.7028 12.7395 18.7386L9.66816 20.3646C9.58062 20.4156 9.48011 20.4403 9.37886 20.4355C9.27759 20.4305 9.17992 20.3963 9.09769 20.3371C9.01545 20.2778 8.95218 20.1959 8.91556 20.1014C8.87892 20.0069 8.8705 19.9038 8.89132 19.8046L9.46943 16.3719C9.4943 16.2923 9.49905 16.2077 9.4833 16.1257C9.46754 16.0438 9.43175 15.967 9.3791 15.9022L6.83173 13.4632C6.76417 13.3948 6.71674 13.3091 6.69466 13.2155C6.67257 13.1218 6.6767 13.024 6.70654 12.9325C6.7364 12.8411 6.79084 12.7597 6.86392 12.6971C6.93699 12.6346 7.02586 12.5934 7.1208 12.578L10.5715 12.0721C10.6574 12.0634 10.7395 12.0321 10.8093 11.9813C10.8791 11.9305 10.9342 11.8621 10.9689 11.783L12.5227 8.65757C12.5642 8.56909 12.6297 8.49401 12.7118 8.4408C12.7938 8.38761 12.889 8.35842 12.9868 8.35654C13.0845 8.35467 13.1808 8.38016 13.2648 8.43018C13.3488 8.48017 13.4172 8.55267 13.4621 8.6395Z" stroke="#08122A" stroke-width="1.85714" stroke-linecap="round" stroke-linejoin="round"/>
</g>
<defs>
<clipPath id="clip0_0_137">
<rect width="26" height="26" fill="white"/>
</clipPath>
</defs>
</svg>
