<svg width="80" height="80" viewBox="0 0 80 80" fill="none" xmlns="http://www.w3.org/2000/svg">
<path d="M2.85742 62.8576C2.85742 64.3712 3.45789 65.8229 4.52705 66.8942C5.59622 67.9655 7.04674 68.5689 8.56028 68.5719H71.4403C72.9538 68.5689 74.4043 67.9655 75.4735 66.8942C76.5427 65.8229 77.1431 64.3712 77.1431 62.8576V51.2348C74.6759 50.5657 72.4974 49.103 70.9443 47.0726C69.3911 45.0421 68.5495 42.5569 68.5495 40.0005C68.5495 37.4441 69.3911 34.9588 70.9443 32.9284C72.4974 30.8979 74.6759 29.4352 77.1431 28.7662V17.1433C77.1431 15.6298 76.5427 14.1781 75.4735 13.1068C74.4043 12.0354 72.9538 11.4321 71.4403 11.429H8.56028C7.04674 11.4321 5.59622 12.0354 4.52705 13.1068C3.45789 14.1781 2.85742 15.6298 2.85742 17.1433V28.7433C5.34439 29.3974 7.54474 30.8567 9.1149 32.8932C10.6851 34.9298 11.5366 37.4289 11.5366 40.0005C11.5366 42.572 10.6851 45.0712 9.1149 47.1077C7.54474 49.1443 5.34439 50.6035 2.85742 51.2576V62.8576Z" fill="#2573C0" fill-opacity="0.1"/>
<path d="M2.85742 62.8576C2.85742 64.3712 3.45789 65.8229 4.52705 66.8942C5.59622 67.9655 7.04674 68.5689 8.56028 68.5719H71.4403C72.9538 68.5689 74.4043 67.9655 75.4735 66.8942C76.5427 65.8229 77.1431 64.3712 77.1431 62.8576V51.2348C74.6759 50.5657 72.4974 49.103 70.9443 47.0726C69.3911 45.0422 68.5495 42.5569 68.5495 40.0005C68.5495 37.4441 69.3911 34.9588 70.9443 32.9284C72.4974 30.8979 74.6759 29.4352 77.1431 28.7662V17.1433C77.1431 15.6298 76.5427 14.1781 75.4735 13.1068C74.4043 12.0354 72.9538 11.4321 71.4403 11.429H8.56028C7.04674 11.4321 5.59622 12.0354 4.52705 13.1068C3.45789 14.1781 2.85742 15.6298 2.85742 17.1433V28.7433C5.34439 29.3974 7.54474 30.8567 9.1149 32.8932C10.6851 34.9298 11.5366 37.4289 11.5366 40.0005C11.5366 42.572 10.6851 45.0712 9.1149 47.1077C7.54474 49.1443 5.34439 50.6035 2.85742 51.2576V62.8576Z" stroke="#2573C0" stroke-width="4" stroke-linecap="round" stroke-linejoin="round"/>
<path d="M25.8281 54.2862L54.3996 25.7148" stroke="#2573C0" stroke-width="4" stroke-linecap="round" stroke-linejoin="round"/>
<path d="M28.6853 31.4291C29.443 31.4291 30.1698 31.1281 30.7056 30.5923C31.2414 30.0564 31.5424 29.3297 31.5424 28.572C31.5424 27.8142 31.2414 27.0875 30.7056 26.5517C30.1698 26.0158 29.443 25.7148 28.6853 25.7148C27.9275 25.7148 27.2008 26.0158 26.665 26.5517C26.1291 27.0875 25.8281 27.8142 25.8281 28.572C25.8281 29.3297 26.1291 30.0564 26.665 30.5923C27.2008 31.1281 27.9275 31.4291 28.6853 31.4291Z" stroke="#2573C0" stroke-width="4" stroke-linecap="round" stroke-linejoin="round"/>
<path d="M51.5427 54.2861C52.3005 54.2861 53.0272 53.9851 53.563 53.4493C54.0988 52.9134 54.3998 52.1867 54.3998 51.429C54.3998 50.6712 54.0988 49.9445 53.563 49.4086C53.0272 48.8728 52.3005 48.5718 51.5427 48.5718C50.7849 48.5718 50.0582 48.8728 49.5224 49.4086C48.9866 49.9445 48.6855 50.6712 48.6855 51.429C48.6855 52.1867 48.9866 52.9134 49.5224 53.4493C50.0582 53.9851 50.7849 54.2861 51.5427 54.2861Z" stroke="#2573C0" stroke-width="4" stroke-linecap="round" stroke-linejoin="round"/>
</svg>
