<svg width="48" height="29" viewBox="0 0 48 29" fill="none" xmlns="http://www.w3.org/2000/svg">
<path d="M27.0748 14.5001C27.0748 22.0279 21.0139 28.1306 13.5372 28.1306C6.06045 28.1306 0 22.0297 0 14.5001C0 6.97056 6.06091 0.870117 13.5372 0.870117C21.0134 0.870117 27.0748 6.9724 27.0748 14.5001ZM41.9258 14.5001C41.9258 21.5866 38.8951 27.3308 35.1569 27.3308C31.4188 27.3308 28.3881 21.5848 28.3881 14.5001C28.3881 7.41553 31.4188 1.6695 35.1569 1.6695C38.8951 1.6695 41.9258 7.41553 41.9258 14.5001ZM48 14.5001C48 20.8493 46.934 25.9959 45.6193 25.9959C44.3046 25.9959 43.2386 20.8474 43.2386 14.5001C43.2386 8.15286 44.3046 3.00442 45.6198 3.00442C46.9349 3.00442 48 8.15148 48 14.5001Z" fill="white"/>
</svg>
