<svg width="43" height="43" viewBox="0 0 43 43" fill="none" xmlns="http://www.w3.org/2000/svg">
<path d="M21.4021 0.499023C15.6988 0.499023 14.983 0.523962 12.743 0.625904C10.5074 0.728283 8.98136 1.08223 7.6461 1.60157C6.26489 2.13797 5.09326 2.85549 3.926 4.02323C2.75786 5.19053 2.04035 6.3622 1.50222 7.743C0.98159 9.07875 0.627211 10.6052 0.526585 12.8401C0.426397 15.0802 0.400146 15.7964 0.400146 21.4999C0.400146 27.2034 0.425522 27.9169 0.527023 30.157C0.629837 32.3928 0.983778 33.9188 1.50266 35.2541C2.03948 36.6354 2.75698 37.807 3.92468 38.9743C5.09151 40.1425 6.26314 40.8618 7.64347 41.3982C8.97961 41.9175 10.5061 42.2715 12.7413 42.3738C14.9813 42.4758 15.6966 42.5007 21.3995 42.5007C27.1032 42.5007 27.8168 42.4758 30.0568 42.3738C32.2925 42.2715 33.8202 41.9175 35.1564 41.3982C36.5371 40.8618 37.707 40.1425 38.8739 38.9743C40.042 37.807 40.7595 36.6354 41.2976 35.2546C41.8139 33.9188 42.1683 32.3923 42.2733 30.1575C42.3739 27.9174 42.4001 27.2034 42.4001 21.4999C42.4001 15.7964 42.3739 15.0806 42.2733 12.8405C42.1683 10.6048 41.8139 9.07875 41.2976 7.74344C40.7595 6.3622 40.042 5.19053 38.8739 4.02323C37.7057 2.85506 36.5376 2.13753 35.1551 1.60157C33.8163 1.08223 32.2894 0.728283 30.0538 0.625904C27.8137 0.523962 27.1006 0.499023 21.3956 0.499023H21.4021ZM19.5182 4.28355C20.0774 4.28268 20.7012 4.28355 21.4021 4.28355C27.0092 4.28355 27.6737 4.30368 29.888 4.40431C31.9355 4.49794 33.0467 4.84007 33.787 5.12752C34.767 5.50816 35.4657 5.96318 36.2003 6.69821C36.9353 7.43324 37.3903 8.13327 37.7718 9.11331C38.0592 9.85271 38.4018 10.964 38.495 13.0116C38.5956 15.2254 38.6175 15.8905 38.6175 21.4951C38.6175 27.0997 38.5956 27.7647 38.495 29.9785C38.4014 32.0261 38.0592 33.1374 37.7718 33.8768C37.3912 34.8569 36.9353 35.5547 36.2003 36.2893C35.4653 37.0243 34.7674 37.4793 33.787 37.86C33.0476 38.1487 31.9355 38.49 29.888 38.5836C27.6742 38.6843 27.0092 38.7061 21.4021 38.7061C15.7946 38.7061 15.1301 38.6843 12.9163 38.5836C10.8688 38.4891 9.75749 38.147 9.0168 37.8595C8.03679 37.4789 7.33678 37.0239 6.60177 36.2888C5.86677 35.5538 5.41176 34.8555 5.03026 33.8751C4.74282 33.1357 4.40025 32.0244 4.30706 29.9768C4.20644 27.7629 4.18631 27.0979 4.18631 21.4898C4.18631 15.8817 4.20644 15.2202 4.30706 13.0063C4.40069 10.9588 4.74282 9.84746 5.03026 9.10718C5.41089 8.12714 5.86677 7.42712 6.60177 6.69209C7.33678 5.95706 8.03679 5.50204 9.0168 5.12052C9.75706 4.83176 10.8688 4.4905 12.9163 4.39643C14.8535 4.30893 15.6043 4.28268 19.5182 4.2783V4.28355ZM32.6119 7.77057C31.2206 7.77057 30.0918 8.89805 30.0918 10.2898C30.0918 11.6811 31.2206 12.8099 32.6119 12.8099C34.0031 12.8099 35.1319 11.6811 35.1319 10.2898C35.1319 8.89849 34.0031 7.76969 32.6119 7.76969V7.77057ZM21.4021 10.7151C15.4464 10.7151 10.6176 15.5439 10.6176 21.4999C10.6176 27.4558 15.4464 32.2825 21.4021 32.2825C27.3579 32.2825 32.1849 27.4558 32.1849 21.4999C32.1849 15.5439 27.3574 10.7151 21.4017 10.7151H21.4021ZM21.4021 14.4996C25.2679 14.4996 28.4022 17.6335 28.4022 21.4999C28.4022 25.3658 25.2679 28.5002 21.4021 28.5002C17.5359 28.5002 14.402 25.3658 14.402 21.4999C14.402 17.6335 17.5359 14.4996 21.4021 14.4996Z" fill="white"/>
</svg>
