<svg width="43" height="37" viewBox="0 0 43 37" fill="none" xmlns="http://www.w3.org/2000/svg">
<path d="M39.9644 1.11964L2.76076 15.4692C0.221545 16.488 0.236605 17.9042 2.29793 18.5357L11.5766 21.4318L15.1269 32.3166C15.5585 33.5079 15.3457 33.9804 16.5968 33.9804C17.5622 33.9804 17.9905 33.5403 18.5282 33.015C18.8701 32.6804 20.9004 30.7065 23.1673 28.5025L32.8189 35.6335C34.5949 36.6133 35.8773 36.1057 36.3195 33.984L42.6551 4.12859C43.3037 1.52804 41.6636 0.348442 39.9644 1.11964ZM13.0328 20.7664L33.9471 7.57149C34.9911 6.93832 35.9484 7.27874 35.1625 7.97644L17.2544 24.134L16.5571 31.5711L13.0328 20.7664Z" fill="white"/>
</svg>
