<svg width="45" height="35" viewBox="0 0 45 35" fill="none" xmlns="http://www.w3.org/2000/svg">
<path d="M37.8479 3.51154C35.0435 2.22477 32.0362 1.27671 28.8919 0.733722C28.8347 0.723246 28.7774 0.749435 28.7479 0.801814C28.3612 1.48972 27.9328 2.38714 27.6328 3.09251C24.2508 2.58618 20.8862 2.58618 17.5737 3.09251C17.2736 2.37143 16.8296 1.48972 16.4412 0.801814C16.4117 0.751181 16.3544 0.724992 16.2972 0.733722C13.1546 1.27497 10.1473 2.22302 7.34115 3.51154C7.31687 3.52201 7.29606 3.53947 7.28218 3.56217C1.57798 12.0842 0.0153557 20.3967 0.781928 28.6061C0.785397 28.6463 0.807943 28.6847 0.839161 28.7092C4.60265 31.473 8.2482 33.1509 11.8261 34.263C11.8834 34.2805 11.9441 34.2595 11.9805 34.2124C12.8268 33.0566 13.5813 31.8379 14.2282 30.5564C14.2663 30.4813 14.2299 30.3923 14.1518 30.3626C12.9552 29.9086 11.8157 29.3552 10.7196 28.7266C10.6329 28.676 10.626 28.552 10.7057 28.4927C10.9364 28.3198 11.1671 28.14 11.3873 27.9584C11.4272 27.9252 11.4827 27.9182 11.5295 27.9392C18.7305 31.2268 26.5263 31.2268 33.6422 27.9392C33.689 27.9165 33.7445 27.9235 33.7862 27.9566C34.0064 28.1382 34.2371 28.3198 34.4695 28.4927C34.5493 28.552 34.5441 28.676 34.4573 28.7266C33.3612 29.3674 32.2218 29.9086 31.0234 30.3608C30.9453 30.3905 30.9106 30.4813 30.9488 30.5564C31.6096 31.8362 32.364 33.0548 33.1947 34.2107C33.2294 34.2595 33.2919 34.2805 33.3491 34.263C36.9444 33.1509 40.5899 31.473 44.3534 28.7092C44.3864 28.6847 44.4072 28.648 44.4106 28.6079C45.3281 19.1169 42.874 10.8725 37.9052 3.56391C37.893 3.53947 37.8722 3.52201 37.8479 3.51154ZM15.3034 23.6075C13.1355 23.6075 11.3492 21.6171 11.3492 19.1728C11.3492 16.7284 13.1008 14.738 15.3034 14.738C17.5234 14.738 19.2924 16.7459 19.2577 19.1728C19.2577 21.6171 17.506 23.6075 15.3034 23.6075ZM29.9238 23.6075C27.7559 23.6075 25.9695 21.6171 25.9695 19.1728C25.9695 16.7284 27.7212 14.738 29.9238 14.738C32.1437 14.738 33.9128 16.7459 33.8781 19.1728C33.8781 21.6171 32.1437 23.6075 29.9238 23.6075Z" fill="white"/>
</svg>
